<svg xmlns="http://www.w3.org/2000/svg" width="126" height="114.5" viewBox="0 0 126 114.5">
  <g id="Group_1" data-name="Group 1" transform="translate(139 -337)">
    <path id="icons8-cable-stayed-bridge" d="M59,1a3.009,3.009,0,0,0-3,3L55,88H42.9l6.3-9.9a2.968,2.968,0,1,0-5-3.2L35.8,88H28.7L49.2,55.8a2.968,2.968,0,1,0-5-3.2L21.6,88H14.5L49.2,33.4a2.968,2.968,0,0,0-5-3.2L7.4,88H4a3,3,0,0,0,0,6H49v16a3,3,0,0,0,6,0V94H73v16a3,3,0,0,0,6,0V94h45a3,3,0,0,0,0-6h-3.4L72.5,12.4a2.182,2.182,0,0,0-.4-.5L72,4a3.076,3.076,0,0,0-3-3Zm3,6h4l1,81H61ZM72.2,23.1,113.5,88h-7.1L72.5,34.7c-.1-.1-.1-.2-.2-.2Zm.3,22.7L99.3,88H92.2L72.6,57.2Zm.3,22.8L85.1,88H73Z" transform="translate(-140 336)"/>
    <path id="Line_1" data-name="Line 1" d="M56,2.5H0A2.5,2.5,0,0,1-2.5,0,2.5,2.5,0,0,1,0-2.5H56A2.5,2.5,0,0,1,58.5,0,2.5,2.5,0,0,1,56,2.5Z" transform="translate(-104 449)"/>
  </g>
</svg>
