<svg xmlns="http://www.w3.org/2000/svg" width="51.703" height="35.499" viewBox="0 0 51.703 35.499">
  <g id="Group_1" data-name="Group 1" transform="translate(-506.617 -372)">
    <path id="icons8-louvre-pyramid" d="M51.7,32.275,26.737.5a1.438,1.438,0,0,0-2.179,0L0,31.776V34.5H51.7ZM36.723,17.7l-4.494,5.765L27.372,17.25l4.494-5.765ZM25.647,3.586l4.494,5.765-4.494,5.72-4.494-5.72h0ZM19.383,11.53l4.539,5.72-4.63,5.9L14.8,17.386ZM3.5,31.776l3-3.813,3,3.813Zm4.721-5.992,4.857-6.174,4.494,5.765L12.71,31.549Zm7.762,5.992,3.314-4.222,3.314,4.222Zm5.039-6.446,4.63-5.9L30.5,25.6l-4.63,5.9Zm8.125,6.446,3.087-3.949,3.087,3.949Zm4.812-6.128,4.494-5.765,4.63,5.9-4.494,5.765Zm7.9,6.128,3-3.813,3,3.813Z" transform="translate(558.32 406.499) rotate(180)"/>
    <path id="Line_1" data-name="Line 1" d="M11.8,1H0A1,1,0,0,1-1,0,1,1,0,0,1,0-1H11.8a1,1,0,0,1,1,1A1,1,0,0,1,11.8,1Z" transform="translate(526.568 406.499)"/>
  </g>
</svg>
