<?xml version="1.0" encoding="utf-8"?>
<!-- Generator: Adobe Illustrator 27.4.0, SVG Export Plug-In . SVG Version: 6.00 Build 0)  -->
<svg version="1.1" id="Layer_1" xmlns="http://www.w3.org/2000/svg" xmlns:xlink="http://www.w3.org/1999/xlink" x="0px" y="0px"
	 viewBox="0 0 53 54" style="enable-background:new 0 0 53 54;" xml:space="preserve">
<style type="text/css">
	.st0{fill:url(#Ellipse_6_00000126298003873400067730000014704398491904889526_);}
	.st1{fill:#FFFFFF;}
</style>
<g id="Group_114" transform="translate(3378 3303)">
	
		<linearGradient id="Ellipse_6_00000059996864297400760810000014333520583680443313_" gradientUnits="userSpaceOnUse" x1="-3380.3428" y1="-3275.5" x2="-3325.1711" y2="-3275.5" gradientTransform="matrix(0.7071 0.7071 -0.7071 0.7071 -3297.759 1410.4966)">
		<stop  offset="0" style="stop-color:#06DEF4"/>
		<stop  offset="0.441" style="stop-color:#29A4FF"/>
		<stop  offset="0.4455" style="stop-color:#2CA3FE"/>
		<stop  offset="0.4833" style="stop-color:#409CFA"/>
		<stop  offset="0.5262" style="stop-color:#4E97F6"/>
		<stop  offset="0.5786" style="stop-color:#5694F5"/>
		<stop  offset="0.6662" style="stop-color:#5993F4"/>
	</linearGradient>
	
		<circle id="Ellipse_6" style="fill:url(#Ellipse_6_00000059996864297400760810000014333520583680443313_);" cx="-3351.5" cy="-3275.5" r="26.5"/>
	<path class="st1" d="M-3338.4-3275.9c0-3.8-1.2-7.1-3.7-9.7c-1.7-1.8-3.6-3-5.9-3.6v-5.8h-7v5.7c-2.5,0.6-4.6,1.7-6.3,3.6
		c-2.5,2.6-3.8,5.8-3.8,9.7c0,4,1.3,7.2,3.9,9.8c1.7,1.7,3.8,2.8,6.3,3.4v5.8h7v-5.6c3.6-0.6,6.3-2.4,8.4-5.4l-4.6-2.7
		c-1.5,2.1-3.7,3.2-6.7,3.2c-4.3,0-7.5-2.2-8.3-6.1h20.7C-3338.5-3274.6-3338.4-3275.4-3338.4-3275.9z M-3359.4-3278.2
		c0.8-4,3.7-6.4,7.9-6.4c3.7,0,6.7,2.2,7.4,6.4H-3359.4z"/>
</g>
</svg>
