<svg xmlns="http://www.w3.org/2000/svg" xmlns:xlink="http://www.w3.org/1999/xlink" width="2922.067" height="439.56" viewBox="0 0 2922.067 439.56">
  <defs>
    <linearGradient id="linear-gradient" x1="-0.131" y1="0.128" x2="1.094" y2="0.371" gradientUnits="objectBoundingBox">
      <stop offset="0" stop-color="#484ff6"/>
      <stop offset="0.191" stop-color="#4e83f9"/>
      <stop offset="0.419" stop-color="#5095fa"/>
      <stop offset="1" stop-color="#59f0fd"/>
    </linearGradient>
  </defs>
  <g id="Group_13" data-name="Group 13" transform="translate(0 -10)">
    <g id="Group_12" data-name="Group 12" transform="translate(-274.05 -253.63)">
      <g id="Group_10" data-name="Group 10" transform="translate(-10.752 -9.406)">
        <path id="Path_2" data-name="Path 2" d="M0,0H144.332V152.839Z" transform="translate(3062.536 273.036)" fill="url(#linear-gradient)"/>
      </g>
      <g id="Group_10-2" data-name="Group_10" transform="translate(4.35 391)">
        <g id="Group_11" data-name="Group 11" transform="translate(-15 -389)">
          <path id="Path_5" data-name="Path 5" d="M346.1,481.9c8.7,41.2,41.7,64,86.7,64,30.9,0,54.2-11.4,69.9-33.6l48.2,28.2c-26.6,39.6-66.1,59.1-118.7,59.1-43.9,0-79.7-13.5-106.8-40.1q-40.65-40.65-40.7-102.4c0-40.7,13.5-74.3,40.1-101.4,26.6-27.6,61.2-41.2,103-41.2,39.6,0,72.1,14.1,97.6,41.7C551,383.8,564,418,564,457.5a150.5,150.5,0,0,1-2.2,24.4ZM505,434.2c-8.1-43.9-39-66.7-77.5-66.7-43.4,0-73.7,25.5-81.8,66.7Z" fill="#fff"/>
          <path id="Path_6" data-name="Path 6" d="M788.4,321.5h64l-105.7,271H678.9l-105.7-271h64l75.9,206Z" fill="#fff"/>
          <path id="Path_7" data-name="Path 7" d="M924.5,481.9c8.7,41.2,41.7,64,86.7,64,30.9,0,54.2-11.4,69.9-33.6l48.2,28.2c-26.6,39.6-66.1,59.1-118.7,59.1-43.9,0-79.7-13.5-106.8-40.1q-40.65-40.65-40.7-102.4c0-40.7,13.5-74.3,40.1-101.4,26.6-27.6,61.2-41.2,103-41.2,39.6,0,72.1,14.1,97.6,41.7s38.5,61.8,38.5,101.4a150.51,150.51,0,0,1-2.2,24.4H924.5Zm158.8-47.7c-8.1-43.9-39-66.7-77.5-66.7-43.4,0-73.7,25.5-81.8,66.7Z" fill="#fff"/>
          <path id="Path_8" data-name="Path 8" d="M1252.4,367c14.6-33.6,42.8-50.4,83.5-50.4V380q-33.3-2.4-58.5,16.3c-16.8,11.9-24.9,32-24.9,59.6V592.5H1194v-271h58.5V367Z" fill="#fff"/>
          <path id="Path_9" data-name="Path 9" d="M1567.3,321.5h62.3L1525.5,601.2c-26,69.9-69.9,103.5-132.2,99.7V646.2c36.9,2.2,57.5-15.7,72.1-53.1l2.7-5.4L1353.2,321.6h64L1498,518.3Z" fill="#fff"/>
          <path id="Path_10" data-name="Path 10" d="M1753.7,431.5c41.7,9.2,95.9,26.6,94.9,84.6,0,26-10.3,46.6-30.4,61.2s-45,22.2-75.3,22.2c-53.7,0-93.2-23.8-110.6-63.4l50.4-29.3q13.8,39,60.2,39c30.9,0,46.1-10.3,46.1-30.4,0-17.3-22.8-27.6-51.5-34.7-40.7-10.3-95.4-26.6-94.3-83.5,0-24.9,9.2-45,28.2-60.2s42.8-22.8,71-22.8c45,0,81.3,21.1,100.3,56.4l-49.3,27.6c-9.2-20.6-26.6-30.9-50.9-30.9-22.2,0-39.6,9.8-39.6,28.7C1702.8,414.2,1725.5,423.4,1753.7,431.5Z" fill="#fff"/>
          <path id="Path_11" data-name="Path 11" d="M2148.8,356.2c26.6,27.6,39.6,61.2,39.6,100.8,0,40.1-13,73.7-39.6,101.4s-58,41.2-95.4,41.2c-41.2,0-72.6-15.2-94.9-45.5V701H1900V321.5h58.5v39c22.2-30.9,53.7-46.1,94.9-46.1C2090.8,314.5,2122.3,328.5,2148.8,356.2ZM2044.2,543.7c24.4,0,45-8.1,61.2-24.4,16.3-16.8,24.4-37.4,24.4-62.3s-8.1-45.5-24.4-61.8c-16.3-16.8-36.9-24.9-61.2-24.9s-45,8.1-61.2,24.9q-24.45,24.45-24.4,61.8c0,24.9,8.1,45.5,24.4,62.3C1999.2,535.6,2019.8,543.7,2044.2,543.7Z" fill="#fff"/>
          <path id="Path_12" data-name="Path 12" d="M2456.1,321.5h58.5v271h-58.5v-39c-22.2,30.9-53.7,46.1-94.9,46.1-37.4,0-68.8-13.5-95.4-41.2-26.6-27.6-39.6-61.8-39.6-101.4,0-40.1,13-73.7,39.6-101.4,26.6-27.6,58-41.2,95.4-41.2,41.2,0,72.6,15.2,94.9,45.5Zm-85.6,222.2c24.4,0,45-8.1,61.2-24.4,16.3-16.8,24.4-37.4,24.4-62.3s-8.1-45.5-24.4-61.8c-16.3-16.8-36.9-24.9-61.2-24.9-24.4,0-45,8.1-61.2,24.9q-24.45,24.45-24.4,61.8c0,24.9,8.1,45.5,24.4,62.3C2325.5,535.6,2346.1,543.7,2370.5,543.7Z" fill="#fff"/>
          <path id="Path_13" data-name="Path 13" d="M2608.4,558.4c-27.1-27.6-40.7-61.2-40.7-101.4,0-40.7,13.5-74.3,40.7-101.4,27.6-27.6,61.8-41.2,102.4-41.2,52.6,0,99.2,27.1,120.9,69.9l-50.4,29.3c-12.5-26-38.5-41.7-71-41.7q-35.7,0-60.2,24.4c-15.7,16.3-23.8,36.3-23.8,60.7s8.1,44.4,23.8,60.7c16.3,16.3,36.3,24.4,60.2,24.4,32,0,59.1-16.3,72.1-41.7l50.4,28.7c-23.3,43.4-69.4,70.5-122,70.5C2670.2,599.5,2636.1,586,2608.4,558.4Z" fill="#fff"/>
          <path id="Path_14" data-name="Path 14" d="M2916.8,481.9c8.7,41.2,41.7,64,86.7,64,30.9,0,54.2-11.4,69.9-33.6l48.2,28.2c-26.6,39.6-66.1,59.1-118.7,59.1-43.9,0-79.7-13.5-106.8-40.1q-40.65-40.65-40.7-102.4c0-40.7,13.5-74.3,40.1-101.4,26.6-27.6,61.2-41.2,103-41.2,39.6,0,72.1,14.1,97.6,41.7s38.5,61.8,38.5,101.4a150.51,150.51,0,0,1-2.2,24.4H2916.8Zm158.8-47.7c-8.1-43.9-39-66.7-77.5-66.7-43.4,0-73.7,25.5-81.8,66.7Z" fill="#fff"/>
        </g>
      </g>
    </g>
  </g>
</svg>
