<?xml version="1.0" encoding="utf-8"?>
<!-- Generator: Adobe Illustrator 27.2.0, SVG Export Plug-In . SVG Version: 6.00 Build 0)  -->
<svg version="1.1" id="Layer_1" xmlns="http://www.w3.org/2000/svg" xmlns:xlink="http://www.w3.org/1999/xlink" x="0px" y="0px"
	 viewBox="0 0 4999.9 928" style="enable-background:new 0 0 4999.9 928;" xml:space="preserve">
<style type="text/css">
	.st0{enable-background:new    ;}
</style>
<g id="Group_4" transform="translate(-903 -4698)">
	<g class="st0">
		<path d="M1040.5,5226.7c14.8,70.5,71.5,109.5,148.5,109.5c52.9,0,92.8-19.5,119.7-57.5l82.6,48.3
			c-45.5,67.7-113.2,101.2-203.2,101.2c-75.2,0-136.4-23.2-182.8-68.7c-46.4-46.4-69.6-104.9-69.6-175.4
			c0-69.6,23.2-127.1,68.7-173.5c45.5-47.3,104.9-70.5,176.3-70.5c67.7,0,123.4,24.1,167,71.5c43.6,47.3,65.9,105.8,65.9,173.5
			c0,10.2-0.9,24.1-3.7,41.8H1040.5z M1312.4,5145c-13.9-75.2-66.8-114.1-132.7-114.1c-74.2,0-126.2,43.6-140.1,114.1H1312.4z"/>
		<path d="M1797.8,4952h109.5l-181,464h-116l-181-464h109.5l129.9,352.6L1797.8,4952z"/>
		<path d="M2030.7,5226.7c14.8,70.5,71.5,109.5,148.5,109.5c52.9,0,92.8-19.5,119.7-57.5l82.6,48.3
			c-45.5,67.7-113.2,101.2-203.2,101.2c-75.2,0-136.4-23.2-182.8-68.7c-46.4-46.4-69.6-104.9-69.6-175.4
			c0-69.6,23.2-127.1,68.7-173.5c45.5-47.3,104.9-70.5,176.3-70.5c67.7,0,123.4,24.1,167,71.5c43.6,47.3,65.9,105.8,65.9,173.5
			c0,10.2-0.9,24.1-3.7,41.8H2030.7z M2302.6,5145c-13.9-75.2-66.8-114.1-132.7-114.1c-74.2,0-126.2,43.6-140.1,114.1H2302.6z"/>
		<path d="M2592.1,5030c25.1-57.5,73.3-86.3,142.9-86.3v108.6c-38-2.8-71.5,6.5-100.2,27.8c-28.8,20.4-42.7,54.8-42.7,102.1V5416
			h-100.2v-464h100.2V5030z"/>
		<path d="M3131.3,4952H3238l-178.2,478.8c-44.5,119.7-119.7,177.2-226.4,170.8v-93.7c63.1,3.7,98.4-26.9,123.4-90.9l4.6-9.3
			L2764.7,4952h109.5l138.3,336.9L3131.3,4952z"/>
		<path d="M3450.5,5140.4c71.5,15.8,164.3,45.5,162.4,144.8c0,44.5-17.6,79.8-52,104.9c-34.3,25.1-77,38-129,38
			c-91.9,0-159.6-40.8-189.3-108.6l86.3-50.1c15.8,44.5,50.1,66.8,103,66.8s78.9-17.6,78.9-52c0-29.7-39-47.3-88.2-59.4
			c-69.6-17.6-163.3-45.5-161.5-142.9c0-42.7,15.8-77,48.3-103c32.5-26,73.3-39,121.6-39c77,0,139.2,36.2,171.7,96.5l-84.4,47.3
			c-15.8-35.3-45.5-52.9-87.2-52.9c-38,0-67.7,16.7-67.7,49.2C3363.3,5110.7,3402.3,5126.5,3450.5,5140.4z"/>
		<path d="M4127,5011.4c45.5,47.3,67.7,104.9,67.7,172.6c0,68.7-22.3,126.2-67.7,173.5c-45.5,47.3-99.3,70.5-163.3,70.5
			c-70.5,0-124.4-26-162.4-78v251.5h-100.2V4952h100.2v66.8c38-52.9,91.9-78.9,162.4-78.9C4027.7,4939.9,4081.6,4964.1,4127,5011.4z
			 M3947.9,5332.5c41.8,0,77-13.9,104.9-41.8c27.8-28.8,41.8-64,41.8-106.7c0-42.7-13.9-78-41.8-105.8
			c-27.8-28.8-63.1-42.7-104.9-42.7s-77,13.9-104.9,42.7c-27.8,27.8-41.8,63.1-41.8,105.8c0,42.7,13.9,78,41.8,106.7
			C3870.9,5318.6,3906.2,5332.5,3947.9,5332.5z"/>
		<path d="M4653.2,4952h100.2v464h-100.2v-66.8c-38,52.9-91.9,78.9-162.4,78.9c-64,0-117.9-23.2-163.3-70.5
			c-45.5-47.3-67.7-105.8-67.7-173.5c0-68.7,22.3-126.2,67.7-173.5c45.5-47.3,99.3-70.5,163.3-70.5c70.5,0,124.4,26,162.4,78V4952z
			 M4506.6,5332.5c41.8,0,77-13.9,104.9-41.8c27.8-28.8,41.8-64,41.8-106.7c0-42.7-13.9-78-41.8-105.8
			c-27.8-28.8-63.1-42.7-104.9-42.7s-77,13.9-104.9,42.7c-27.8,27.8-41.8,63.1-41.8,105.8c0,42.7,13.9,78,41.8,106.7
			C4429.6,5318.6,4464.8,5332.5,4506.6,5332.5z"/>
		<path d="M4914,5357.5c-46.4-47.3-69.6-104.9-69.6-173.5c0-69.6,23.2-127.1,69.6-173.5c47.3-47.3,105.8-70.5,175.4-70.5
			c90,0,169.8,46.4,206.9,119.7l-86.3,50.1c-21.3-44.5-65.9-71.5-121.6-71.5c-40.8,0-75.2,13.9-103,41.8
			c-26.9,27.8-40.8,62.2-40.8,103.9s13.9,76.1,40.8,103.9c27.8,27.8,62.2,41.8,103,41.8c54.8,0,101.2-27.8,123.4-71.5l86.3,49.2
			c-39.9,74.2-118.8,120.6-208.8,120.6C5019.8,5428.1,4961.3,5404.9,4914,5357.5z"/>
		<path d="M5442,5226.7c14.8,70.5,71.5,109.5,148.5,109.5c52.9,0,92.8-19.5,119.7-57.5l82.6,48.3
			c-45.5,67.7-113.2,101.2-203.2,101.2c-75.2,0-136.4-23.2-182.8-68.7c-46.4-46.4-69.6-104.9-69.6-175.4
			c0-69.6,23.2-127.1,68.7-173.5c45.5-47.3,104.9-70.5,176.3-70.5c67.7,0,123.4,24.1,167,71.5c43.6,47.3,65.9,105.8,65.9,173.5
			c0,10.2-0.9,24.1-3.7,41.8H5442z M5713.9,5145c-13.9-75.2-66.8-114.1-132.7-114.1c-74.2,0-126.2,43.6-140.1,114.1H5713.9z"/>
	</g>
	<path id="Path_2" d="M5707.2,4839.3h195.7V5035L5707.2,4839.3z"/>
</g>
</svg>
