<svg xmlns="http://www.w3.org/2000/svg"  viewBox="0 0 50 50" width="50px" height="50px"><path d="M 25 10 C 22.796781 10 20.603154 10.869256 18.910156 12.283203 C 18.152999 12.915562 17.500496 13.672397 17 14.515625 L 17 13 L 16 12 L 15 13 L 15 16 L 14 16 L 14 18 L 10 18 L 10 17.236328 L 11.117188 15 L 0.8828125 15 L 2 17.236328 L 2 20 L 1 20 L 1 22 L 2 22 L 2 34 L 0 34 L 0 40 L 1 40 L 24.011719 40 L 50 40 L 50 34 L 48 34 L 48 22 L 49 22 L 49 20 L 48 20 L 48 17.236328 L 49.117188 15 L 38.882812 15 L 40 17.236328 L 40 18 L 36 18 L 36 16 L 35 16 L 35 13 L 34 12 L 33 13 L 33 14.515625 C 32.499504 13.672397 31.847001 12.915562 31.089844 12.283203 C 29.396846 10.869256 27.203219 10 25 10 z M 25 12 C 26.662781 12 28.468091 12.698807 29.808594 13.818359 C 30.55993 14.445856 31.14919 15.190974 31.529297 16 L 29.234375 16 L 25 13.882812 L 20.765625 16 L 18.470703 16 C 18.85081 15.190974 19.44007 14.445856 20.191406 13.818359 C 21.531909 12.698807 23.337219 12 25 12 z M 25 16.117188 L 32.765625 20 L 17.234375 20 L 25 16.117188 z M 4 17 L 8 17 L 8 20 L 4 20 L 4 17 z M 42 17 L 46 17 L 46 20 L 42 20 L 42 17 z M 4 22 L 8 22 L 8 34 L 4 34 L 4 22 z M 10 22 L 14 22 L 14 34 L 10 34 L 10 22 z M 16 22 L 18 22 L 18 34 L 16 34 L 16 22 z M 20 22 L 22 22 L 22 34 L 20 34 L 20 22 z M 24 22 L 26 22 L 26 34 L 24 34 L 24 22 z M 28 22 L 30 22 L 30 34 L 28 34 L 28 22 z M 32 22 L 34 22 L 34 34 L 32 34 L 32 22 z M 36 22 L 40 22 L 40 34 L 36 34 L 36 22 z M 42 22 L 46 22 L 46 34 L 42 34 L 42 22 z M 5 24 L 5 26 L 7 26 L 7 24 L 5 24 z M 11 24 L 11 26 L 13 26 L 13 24 L 11 24 z M 37 24 L 37 26 L 39 26 L 39 24 L 37 24 z M 43 24 L 43 26 L 45 26 L 45 24 L 43 24 z M 6 29 C 5.448 29 5 29.448 5 30 L 5 33 L 7 33 L 7 30 C 7 29.448 6.552 29 6 29 z M 12 29 C 11.448 29 11 29.448 11 30 L 11 33 L 13 33 L 13 30 C 13 29.448 12.552 29 12 29 z M 38 29 C 37.448 29 37 29.448 37 30 L 37 33 L 39 33 L 39 30 C 39 29.448 38.552 29 38 29 z M 44 29 C 43.448 29 43 29.448 43 30 L 43 33 L 45 33 L 45 30 C 45 29.448 44.552 29 44 29 z M 2 36 L 10 36 L 13.382812 36 L 12.382812 38 L 2 38 L 2 36 z M 15.617188 36 L 34.382812 36 L 35.382812 38 L 24.011719 38 L 14.617188 38 L 15.617188 36 z M 36.617188 36 L 48 36 L 48 38 L 37.617188 38 L 36.617188 36 z"/></svg>