<svg xmlns="http://www.w3.org/2000/svg" width="70" height="64.062" viewBox="0 0 70 64.062">
  <path id="icons8-sparkling" d="M69.1,36.042l-15.916-6.63L46.556,13.5a1.521,1.521,0,0,0-2.695,0l-6.63,15.916-15.916,6.63a1.46,1.46,0,0,0,0,2.695l15.916,6.63,6.63,15.916a1.46,1.46,0,0,0,2.7,0l6.63-15.916L69.1,38.737a1.46,1.46,0,0,0,0-2.7ZM31.086,15.587,20.843,12.172,17.427,1.929a1.519,1.519,0,0,0-2.768,0L11.241,12.172,1,15.587a1.461,1.461,0,0,0,0,2.771l10.246,3.415L14.659,32.02a1.459,1.459,0,0,0,2.768,0l3.415-10.246,10.246-3.415a1.459,1.459,0,0,0,0-2.768ZM25.253,53.5l-5.871-1.957-1.957-5.871a1.519,1.519,0,0,0-2.768,0L12.7,51.547,6.828,53.5a1.462,1.462,0,0,0,0,2.771L12.7,58.232,14.659,64.1a1.459,1.459,0,0,0,2.768,0l1.957-5.871,5.871-1.957a1.46,1.46,0,0,0,0-2.768Z" transform="translate(0 -1.036)" fill="#fff"/>
</svg>
