<svg xmlns="http://www.w3.org/2000/svg"  viewBox="0 0 48 48" width="48px" height="48px"><path d="M 38.703125 3 C 38.441125 3 38.176156 3.0242656 37.910156 3.0722656 C 37.066156 3.2242656 36.261078 3.6647031 35.580078 4.3457031 L 24.316406 15.607422 C 23.975406 15.948422 23.724797 16.372984 23.591797 16.833984 L 22.398438 21 L 11.5 21 A 1.50015 1.50015 0 1 0 11.5 24 L 23 24 A 1.50015 1.50015 0 0 0 23.273438 23.978516 C 23.304648 23.981731 23.333889 23.996869 23.365234 23.998047 C 23.557234 24.005047 23.751594 23.97525 23.933594 23.90625 L 29.164062 22.408203 C 29.625062 22.275203 30.049625 22.024594 30.390625 21.683594 L 41.654297 10.419922 C 42.335297 9.7389219 42.775734 8.9338437 42.927734 8.0898438 C 42.975734 7.8238437 43 7.558875 43 7.296875 C 43.002 6.157875 42.561234 5.0797656 41.740234 4.2597656 C 40.920234 3.4387656 39.842125 2.998 38.703125 3 z M 8.5 6 C 6.019 6 4 8.019 4 10.5 L 4 30.5 C 4 32.981 6.019 35 8.5 35 L 17 35 L 17 40 L 13.5 40 A 1.50015 1.50015 0 1 0 13.5 43 L 34.5 43 A 1.50015 1.50015 0 1 0 34.5 40 L 31 40 L 31 35 L 39.5 35 C 41.981 35 44 32.981 44 30.5 L 44 10.652344 C 43.734 11.068344 43.432406 11.470937 43.066406 11.835938 L 41 13.902344 L 41 30.5 C 41 31.327 40.327 32 39.5 32 L 8.5 32 C 7.673 32 7 31.327 7 30.5 L 7 10.5 C 7 9.673 7.673 9 8.5 9 L 28.097656 9 L 31.097656 6 L 8.5 6 z M 20 35 L 28 35 L 28 40 L 20 40 L 20 35 z"/></svg>