<svg xmlns="http://www.w3.org/2000/svg"  viewBox="0 0 48 48" width="48px" height="48px"><path d="M 11.5 6 C 8.4802259 6 6 8.4802259 6 11.5 L 6 36.5 C 6 39.519774 8.4802259 42 11.5 42 L 36.5 42 C 39.519774 42 42 39.519774 42 36.5 L 42 11.5 C 42 8.4802259 39.519774 6 36.5 6 L 11.5 6 z M 11.5 9 L 23.6875 9 C 23.413898 9.0582207 23.152047 9.1917027 22.939453 9.4042969 L 19.404297 12.939453 C 18.818297 13.525453 18.819297 14.475547 19.404297 15.060547 C 19.989297 15.645547 20.939391 15.646547 21.525391 15.060547 L 22.5 14.085938 L 22.5 17.5 A 1.50015 1.50015 0 1 0 25.5 17.5 L 25.5 14.085938 L 26.474609 15.060547 C 27.059609 15.645547 28.010656 15.646547 28.597656 15.060547 C 29.183656 14.474547 29.182656 13.524453 28.597656 12.939453 L 25.060547 9.4042969 C 24.848362 9.1921117 24.58789 9.0583819 24.314453 9 L 36.5 9 C 37.898226 9 39 10.101774 39 11.5 L 39 24 L 39 36.5 C 39 37.898226 37.898226 39 36.5 39 L 23.998047 39 L 11.5 39 C 10.101774 39 9 37.898226 9 36.5 L 9 24 L 9 11.5 C 9 10.101774 10.101774 9 11.5 9 z M 9 24 C 8.999875 24.383875 9.1464531 24.767547 9.4394531 25.060547 L 12.974609 28.595703 C 13.560609 29.181703 14.510703 29.180703 15.095703 28.595703 C 15.680703 28.010703 15.681703 27.060609 15.095703 26.474609 L 14.121094 25.5 L 17.5 25.5 A 1.50015 1.50015 0 1 0 17.5 22.5 L 14.121094 22.5 L 15.095703 21.525391 C 15.681703 20.940391 15.681703 19.989344 15.095703 19.402344 C 14.509703 18.816344 13.559609 18.817344 12.974609 19.402344 L 9.4394531 22.939453 C 9.1469531 23.231953 9.000125 23.616125 9 24 z M 23.998047 39 C 24.379172 39.000125 24.761734 38.855453 25.052734 38.564453 L 28.5625 35.052734 C 29.1445 34.470734 29.1435 33.528266 28.5625 32.947266 C 27.9815 32.366266 27.039031 32.365266 26.457031 32.947266 L 25.5 33.904297 L 25.5 30.5 A 1.50015 1.50015 0 0 0 23.976562 28.978516 A 1.50015 1.50015 0 0 0 22.5 30.5 L 22.5 33.904297 L 21.542969 32.947266 C 20.960969 32.365266 20.018547 32.365266 19.435547 32.947266 C 18.853547 33.529266 18.854547 34.471734 19.435547 35.052734 L 22.945312 38.564453 C 23.235812 38.854953 23.616922 38.999875 23.998047 39 z M 39 24 C 39.000125 23.616125 38.853547 23.232453 38.560547 22.939453 L 35.025391 19.404297 C 34.439391 18.818297 33.489297 18.819297 32.904297 19.404297 C 32.319297 19.989297 32.318297 20.939391 32.904297 21.525391 L 33.878906 22.5 L 30.5 22.5 A 1.50015 1.50015 0 1 0 30.5 25.5 L 33.878906 25.5 L 32.904297 26.474609 C 32.318297 27.059609 32.318297 28.010656 32.904297 28.597656 C 33.490297 29.183656 34.440391 29.182656 35.025391 28.597656 L 38.560547 25.060547 C 38.853047 24.768047 38.999875 24.383875 39 24 z"/></svg>