<svg xmlns="http://www.w3.org/2000/svg" xmlns:xlink="http://www.w3.org/1999/xlink" viewBox="0,0,256,256" width="48px" height="48px" fill-rule="nonzero"><g fill="#ffffff" fill-rule="nonzero" stroke="none" stroke-width="1" stroke-linecap="butt" stroke-linejoin="miter" stroke-miterlimit="10" stroke-dasharray="" stroke-dashoffset="0" font-family="none" font-weight="none" font-size="none" text-anchor="none" style="mix-blend-mode: normal"><g transform="scale(10.66667,10.66667)"><path d="M19.17188,2c-0.72375,0 -1.4475,0.27562 -2,0.82813l-1.17187,1.17188l4,4l1.17188,-1.17187c1.104,-1.104 1.104,-2.895 0,-4c-0.5525,-0.5525 -1.27625,-0.82812 -2,-0.82812zM8,2.82813c-0.51175,0 -1.02356,0.19544 -1.41406,0.58594l-3.17187,3.17188c-0.781,0.781 -0.781,2.04712 0,2.82813l1.64063,1.64063c0.391,0.391 1.02406,0.391 1.41406,0c0.391,-0.39 0.39195,-1.02306 0.00195,-1.41406l-1.64258,-1.64062l3.17188,-3.17187l1.64063,1.64258c0.391,0.391 1.02406,0.391 1.41406,0c0.391,-0.391 0.391,-1.02406 0,-1.41406l-1.64063,-1.64258c-0.3905,-0.3905 -0.90231,-0.58594 -1.41406,-0.58594zM14.5,5.5l-10.91406,10.91406c-0.375,0.375 -0.58594,0.88406 -0.58594,1.41406v3.17188h3.17188c0.53,0 1.03906,-0.21094 1.41406,-0.58594l10.91406,-10.91406zM18.23828,12.65234c-0.256,-0.00012 -0.51348,0.09602 -0.70898,0.29101c-0.391,0.391 -0.391,1.02406 0,1.41406l1.64258,1.64258l-3.17187,3.17188l-1.64062,-1.64062c-0.391,-0.391 -1.02406,-0.391 -1.41406,0c-0.391,0.391 -0.391,1.02406 0,1.41406l1.64063,1.64063c0.781,0.781 2.04712,0.781 2.82812,0l3.17188,-3.17188c0.781,-0.781 0.781,-2.04713 0,-2.82812l-1.64063,-1.64063c-0.1955,-0.1955 -0.45103,-0.29284 -0.70703,-0.29297z"></path></g></g></svg>