<svg xmlns="http://www.w3.org/2000/svg"  viewBox="0 0 48 48" width="48px" height="48px"><path d="M 35.896484 4 A 1.50015 1.50015 0 0 0 34.857422 4.4394531 L 30.083984 9.2128906 L 25.007812 10.580078 C 22.850168 11.160218 21.177914 12.880018 20.65625 15.052734 L 18.097656 25.712891 C 17.864817 26.683506 18.169066 27.57724 18.671875 28.333984 A 1.50015 1.50015 0 0 0 19.664062 29.326172 C 20.421177 29.830042 21.31553 30.135414 22.287109 29.902344 L 32.947266 27.34375 C 35.119557 26.822188 36.838873 25.149613 37.419922 22.992188 L 38.787109 17.916016 L 43.560547 13.142578 A 1.50015 1.50015 0 0 0 43.560547 11.021484 L 36.978516 4.4394531 A 1.50015 1.50015 0 0 0 35.896484 4 z M 35.917969 7.6210938 L 40.378906 12.082031 L 37.707031 14.751953 L 33.248047 10.291016 L 35.917969 7.6210938 z M 8.5 11 C 7.1250003 11 5.9038151 11.569633 5.1289062 12.441406 C 4.3539974 13.313179 4 14.416667 4 15.5 C 4 16.583333 4.3539974 17.686821 5.1289062 18.558594 C 5.6244848 19.11612 6.338907 19.474569 7.1230469 19.714844 C 7.7457572 31.129903 16.830445 40.324027 28.236328 40.960938 C 28.419318 41.534644 28.705429 42.082182 29.128906 42.558594 C 29.903815 43.430367 31.125 44 32.5 44 C 33.875 44 35.096185 43.430367 35.871094 42.558594 C 36.646003 41.686821 37 40.583333 37 39.5 C 37 38.416667 36.646003 37.313179 35.871094 36.441406 C 35.096185 35.569633 33.875 35 32.5 35 C 31.125 35 29.903815 35.569633 29.128906 36.441406 C 28.729631 36.890591 28.446654 37.401688 28.261719 37.939453 C 18.456195 37.322431 10.705204 29.48509 10.117188 19.666016 C 10.804819 19.415669 11.424212 19.061336 11.871094 18.558594 C 12.646003 17.686821 13 16.583333 13 15.5 C 13 14.416667 12.646003 13.313179 11.871094 12.441406 C 11.096185 11.569633 9.8749997 11 8.5 11 z M 30.832031 12.117188 L 35.880859 17.167969 L 34.523438 22.212891 C 34.226053 23.314638 33.357188 24.159479 32.248047 24.425781 L 23.626953 26.496094 L 28.175781 21.945312 A 2.5 2.5 0 0 0 28.529297 21.970703 A 2.5 2.5 0 0 0 28.529297 16.970703 A 2.5 2.5 0 0 0 26.056641 19.822266 L 21.501953 24.376953 L 23.574219 15.751953 C 23.840555 14.64267 24.686754 13.772422 25.787109 13.476562 L 30.832031 12.117188 z M 8.5 14 C 9.1249994 14 9.4038157 14.180367 9.6289062 14.433594 C 9.853997 14.686821 10 15.083333 10 15.5 C 10 15.916667 9.8539969 16.313179 9.6289062 16.566406 C 9.4136032 16.808622 9.1183808 16.965624 8.5488281 16.980469 A 1.50015 1.50015 0 0 0 8.4492188 16.980469 C 7.8815231 16.96514 7.5860574 16.808241 7.3710938 16.566406 C 7.1460031 16.313179 7 15.916667 7 15.5 C 7 15.083333 7.1460031 14.686821 7.3710938 14.433594 C 7.5961844 14.180367 7.8750006 14 8.5 14 z M 32.5 38 C 33.124999 38 33.403816 38.180367 33.628906 38.433594 C 33.853997 38.686821 34 39.083333 34 39.5 C 34 39.916667 33.853997 40.313179 33.628906 40.566406 C 33.403816 40.819633 33.124999 41 32.5 41 C 31.875001 41 31.596184 40.819633 31.371094 40.566406 C 31.17359 40.344215 31.042239 40.010032 31.011719 39.650391 A 1.50015 1.50015 0 0 0 31.013672 39.345703 C 31.044871 38.987616 31.174332 38.654951 31.371094 38.433594 C 31.596184 38.180367 31.875001 38 32.5 38 z"/></svg>