<svg xmlns="http://www.w3.org/2000/svg"  viewBox="0 0 48 48" width="48px" height="48px"><path d="M 10.486328 4.9785156 A 1.50015 1.50015 0 0 0 9.4394531 5.4394531 L 6.4394531 8.4394531 A 1.50015 1.50015 0 0 0 6.4394531 10.560547 L 9.4394531 13.560547 A 1.50015 1.50015 0 1 0 11.560547 11.439453 L 11.121094 11 L 26.878906 11 L 26.439453 11.439453 A 1.50015 1.50015 0 1 0 28.560547 13.560547 L 31.560547 10.560547 A 1.50015 1.50015 0 0 0 31.560547 8.4394531 L 28.560547 5.4394531 A 1.50015 1.50015 0 0 0 27.484375 4.984375 A 1.50015 1.50015 0 0 0 26.439453 7.5605469 L 26.878906 8 L 11.121094 8 L 11.560547 7.5605469 A 1.50015 1.50015 0 0 0 10.486328 4.9785156 z M 38.478516 16 A 1.50015 1.50015 0 0 0 37.439453 16.439453 L 34.439453 19.439453 A 1.50015 1.50015 0 1 0 36.560547 21.560547 L 37 21.121094 L 37 37.878906 L 36.560547 37.439453 A 1.50015 1.50015 0 1 0 34.439453 39.560547 L 37.439453 42.560547 A 1.50015 1.50015 0 0 0 39.560547 42.560547 L 42.560547 39.560547 A 1.50015 1.50015 0 1 0 40.439453 37.439453 L 40 37.878906 L 40 21.121094 L 40.439453 21.560547 A 1.50015 1.50015 0 1 0 42.560547 19.439453 L 39.560547 16.439453 A 1.50015 1.50015 0 0 0 38.478516 16 z M 11.5 17 C 8.4802259 17 6 19.480226 6 22.5 L 6 36.5 C 6 39.519774 8.4802259 42 11.5 42 L 25.5 42 C 28.519774 42 31 39.519774 31 36.5 L 31 22.5 C 31 19.480226 28.519774 17 25.5 17 L 11.5 17 z M 11.5 20 L 25.5 20 C 26.898226 20 28 21.101774 28 22.5 L 28 36.5 C 28 37.898226 26.898226 39 25.5 39 L 11.5 39 C 10.101774 39 9 37.898226 9 36.5 L 9 22.5 C 9 21.101774 10.101774 20 11.5 20 z"/></svg>