<svg xmlns="http://www.w3.org/2000/svg"  viewBox="0 0 32 32" width="32px" height="32px"><path d="M 16 2 C 9.044 2 2.002 3.7160469 2 6.9980469 L 2 17.998047 C 2 19.790047 3.993625 21.219953 7.765625 22.126953 C 8.063625 22.197953 8.3781406 22.1285 8.6191406 21.9375 C 8.8591406 21.7495 9 21.461297 9 21.154297 L 9 15.666016 C 9.964 15.467016 10.987609 15.2985 12.099609 15.1875 C 12.648609 15.1325 13.049141 14.64375 12.994141 14.09375 C 12.939141 13.54475 12.456391 13.141266 11.900391 13.197266 C 10.872391 13.299266 9.918 13.453906 9 13.628906 L 9 10.152344 C 9 9.6893437 8.683375 9.2896406 8.234375 9.1816406 C 5.149375 8.4386406 4 7.45 4 7 C 4 5.942 8.556 4 16 4 C 23.444 4 28 5.942 28 7 C 28 7.449 26.850625 8.4376875 23.765625 9.1796875 C 23.316625 9.2886875 23 9.6893437 23 10.152344 L 23 13.628906 C 22.082 13.453906 21.127609 13.299266 20.099609 13.197266 C 19.540609 13.141266 19.059859 13.54475 19.005859 14.09375 C 18.950859 14.64375 19.351391 15.1335 19.900391 15.1875 C 21.012391 15.2985 22.036 15.467016 23 15.666016 L 23 21.154297 C 23 21.461297 23.140859 21.750453 23.380859 21.939453 C 23.628859 22.135453 23.946375 22.194953 24.234375 22.126953 C 28.006375 21.219953 30 19.792 30 18 L 30 7 L 30 6.9980469 C 29.998 3.7160469 22.956 2 16 2 z M 16 8 C 14.346 8 13 9.346 13 11 C 13 12.654 14.346 14 16 14 C 17.654 14 19 12.654 19 11 C 19 9.346 17.654 8 16 8 z M 4 9.7363281 C 4.78 10.189328 5.783 10.588734 7 10.927734 L 7 19.84375 C 4.837 19.16175 4 18.384 4 18 L 4 9.7363281 z M 28 9.7363281 L 28 18 C 28 18.384 27.163 19.16175 25 19.84375 L 25 10.927734 C 26.217 10.589734 27.22 10.190328 28 9.7363281 z M 16 10 C 16.551 10 17 10.449 17 11 C 17 11.551 16.551 12 16 12 C 15.449 12 15 11.551 15 11 C 15 10.449 15.449 10 16 10 z M 14 15 C 13.739 15 13.476969 15.107969 13.292969 15.292969 L 10.292969 18.292969 C 9.9019687 18.683969 9.9019688 19.316031 10.292969 19.707031 C 10.683969 20.098031 11.316031 20.098031 11.707031 19.707031 L 13 18.414062 L 13 29 C 13 29.553 13.448 30 14 30 C 14.552 30 15 29.553 15 29 L 15 23 L 17 23 L 17 29 C 17 29.553 17.448 30 18 30 C 18.552 30 19 29.553 19 29 L 19 18.414062 L 20.292969 19.707031 C 20.683969 20.098031 21.316031 20.098031 21.707031 19.707031 C 22.098031 19.316031 22.098031 18.683969 21.707031 18.292969 L 18.707031 15.292969 C 18.523031 15.107969 18.261 15 18 15 L 14 15 z M 15 17 L 17 17 L 17 21 L 15 21 L 15 17 z"/></svg>