<svg xmlns="http://www.w3.org/2000/svg" width="214.228" height="275.099" viewBox="0 0 214.228 275.099">
  <g transform="translate(-61.904 -364.75)">
    <path id="icons8-monas-tower" d="M250.044,288.5V273.314a5.062,5.062,0,0,0-5.062-5.062H197.9L221.544,248h3.189a5.062,5.062,0,0,0,5.062-5.062V222.693a5.062,5.062,0,0,0-5.062-5.062H178.87L169.354,89.592a5.062,5.062,0,0,0,4.607-3.8l5.062-20.248a5.173,5.173,0,0,0-.911-4.353,5.062,5.062,0,0,0-4-1.924h-5.973a15.186,15.186,0,0,0,.911-5.062c0-6.48-7.694-21.325-11.035-26.134a5.229,5.229,0,0,0-8.3,0c-3.341,4.809-11.035,19.654-11.035,26.134a15.186,15.186,0,0,0,.911,5.062h-5.973a5.062,5.062,0,0,0-4,1.924,5.173,5.173,0,0,0-.911,4.353L133.767,85.8a5.062,5.062,0,0,0,4.607,3.8l-9.517,128.038H82.994a5.062,5.062,0,0,0-5.062,5.062v20.248A5.062,5.062,0,0,0,82.994,248h3.189l23.64,20.248H62.745a5.062,5.062,0,0,0-5.062,5.062V288.5h-9.53v10.124H259.882V288.5ZM153.864,40.325c2.265,3.33,3.974,10.006,5.062,13.884a5.062,5.062,0,1,1-10.124,0c1.1-3.874,2.806-10.548,5.062-13.884Zm13.769,29.07L165.1,79.519H142.626l-2.531-10.124ZM148.5,89.643h10.732l9.517,127.988H138.981ZM88.056,227.755H219.671v10.124H88.056ZM101.724,248H206l-23.64,20.248h-57Zm138.2,40.5H67.808V278.376H239.92Z" transform="translate(15 339.975)"/>
    <path id="icons8-monas-tower_-_Outline" data-name="icons8-monas-tower - Outline" d="M261.132,299.875H46.9V287.25h9.53V273.314A6.319,6.319,0,0,1,62.745,267h43.7L85.721,249.254H82.994a6.319,6.319,0,0,1-6.312-6.312V222.693a6.319,6.319,0,0,1,6.312-6.312h44.7l9.346-125.742a6.289,6.289,0,0,1-4.486-4.533l0-.007L127.49,65.842a6.4,6.4,0,0,1,1.131-5.405l.014-.018a6.277,6.277,0,0,1,4.952-2.4H137.9a16.4,16.4,0,0,1-.476-3.8v-.01c0-3.83,2.381-9.843,4.378-14.213a93.5,93.5,0,0,1,6.881-12.634l.034-.047a6.479,6.479,0,0,1,10.286,0l.034.047A93.491,93.491,0,0,1,165.922,40c2,4.37,4.378,10.383,4.378,14.213v.01a16.4,16.4,0,0,1-.476,3.8h4.316a6.277,6.277,0,0,1,4.953,2.4l.014.018a6.4,6.4,0,0,1,1.131,5.405l0,.008-5.064,20.256a6.289,6.289,0,0,1-4.486,4.533l9.346,125.742h44.7a6.319,6.319,0,0,1,6.312,6.312v20.248a6.319,6.319,0,0,1-6.312,6.312h-2.727L201.285,267h43.7a6.319,6.319,0,0,1,6.312,6.312V287.25h9.838ZM49.4,297.375H258.632V289.75h-9.838V273.314a3.816,3.816,0,0,0-3.812-3.812H194.523l26.559-22.748h3.651a3.816,3.816,0,0,0,3.812-3.812V222.693a3.816,3.816,0,0,0-3.812-3.812H177.71l-9.7-130.462,1.267-.075a3.8,3.8,0,0,0,3.468-2.856l5.06-20.242a3.907,3.907,0,0,0-.685-3.287,3.791,3.791,0,0,0-2.984-1.44h-7.784l.609-1.677A13.9,13.9,0,0,0,167.8,54.2c0-2.639-1.476-7.315-4.152-13.168a91.069,91.069,0,0,0-6.643-12.222,3.979,3.979,0,0,0-6.284,0,91.064,91.064,0,0,0-6.643,12.222c-2.675,5.854-4.15,10.53-4.152,13.168a13.9,13.9,0,0,0,.836,4.641l.609,1.677h-7.784a3.791,3.791,0,0,0-2.983,1.439,3.907,3.907,0,0,0-.686,3.289l5.06,20.241a3.8,3.8,0,0,0,3.468,2.856l1.267.075-.094,1.266-9.6,129.2H82.994a3.816,3.816,0,0,0-3.812,3.812v20.248a3.816,3.816,0,0,0,3.812,3.812h3.651L113.2,269.5H62.745a3.816,3.816,0,0,0-3.812,3.812V289.75H49.4ZM241.17,289.75H66.558V277.126H241.17Zm-172.112-2.5H238.67v-7.624H69.058ZM182.826,269.5H124.9L98.343,246.754H209.384Zm-57-2.5H181.9l20.721-17.748H105.1Zm95.1-27.873H86.806V226.505H220.921Zm-131.615-2.5H218.421v-7.624H89.306Zm80.787-17.748H137.635l9.7-130.488H160.39Zm-29.765-2.5H167.4L158.069,90.893h-8.411Zm25.75-135.612H141.65l-3.156-12.624h30.74Zm-22.476-2.5h20.524l1.906-7.624H141.7ZM153.864,60.52a6.319,6.319,0,0,1-6.312-6.312v-.174l.047-.167c.113-.4.231-.823.357-1.273,1.154-4.14,2.735-9.809,4.873-12.97l1.033-1.527,1.037,1.524c2.169,3.189,3.754,8.916,4.912,13.1.112.4.219.791.32,1.152l.046.166v.172A6.319,6.319,0,0,1,153.864,60.52Zm-3.809-6.151a3.812,3.812,0,0,0,7.618,0c-.087-.312-.178-.64-.273-.982a69.418,69.418,0,0,0-3.533-10.515,69.973,69.973,0,0,0-3.5,10.4C150.256,53.652,150.153,54.021,150.055,54.369Z" transform="translate(15 339.975)"/>
  </g>
</svg>
