<svg xmlns="http://www.w3.org/2000/svg"  viewBox="0 0 64 64" width="48px" height="48px"><path d="M 23 10 C 19.691 10 17 12.691 17 16 L 17 31 L 14 31 C 10.691 31 8 33.691 8 37 L 8 51 C 8 52.104 8.896 53 10 53 C 11.104 53 12 52.104 12 51 L 12 37 C 12 35.897 12.897 35 14 35 L 30 35 L 30 51 C 30 52.104 30.896 53 32 53 C 33.104 53 34 52.104 34 51 L 34 30 C 34 28.897 34.897 28 36 28 L 50 28 C 51.103 28 52 28.897 52 30 L 52 51 C 52 52.104 52.896 53 54 53 C 55.104 53 56 52.104 56 51 L 56 30 C 56 26.691 53.309 24 50 24 L 43 24 L 43 16 C 43 12.691 40.309 10 37 10 L 23 10 z M 23 14 L 37 14 C 38.103 14 39 14.897 39 16 L 39 24 L 36 24 C 32.691 24 30 26.691 30 30 L 30 31 L 21 31 L 21 16 C 21 14.897 21.897 14 23 14 z M 25 17 C 24.448 17 24 17.448 24 18 L 24 20 C 24 20.552 24.448 21 25 21 L 27 21 C 27.552 21 28 20.552 28 20 L 28 18 C 28 17.448 27.552 17 27 17 L 25 17 z M 33 17 C 32.448 17 32 17.448 32 18 L 32 20 C 32 20.552 32.448 21 33 21 L 35 21 C 35.552 21 36 20.552 36 20 L 36 18 C 36 17.448 35.552 17 35 17 L 33 17 z M 25 24 C 24.448 24 24 24.448 24 25 L 24 27 C 24 27.552 24.448 28 25 28 L 27 28 C 27.552 28 28 27.552 28 27 L 28 25 C 28 24.448 27.552 24 27 24 L 25 24 z M 38 31 C 37.448 31 37 31.448 37 32 L 37 34 C 37 34.552 37.448 35 38 35 L 40 35 C 40.552 35 41 34.552 41 34 L 41 32 C 41 31.448 40.552 31 40 31 L 38 31 z M 46 31 C 45.448 31 45 31.448 45 32 L 45 34 C 45 34.552 45.448 35 46 35 L 48 35 C 48.552 35 49 34.552 49 34 L 49 32 C 49 31.448 48.552 31 48 31 L 46 31 z M 16 38 C 15.448 38 15 38.448 15 39 L 15 41 C 15 41.552 15.448 42 16 42 L 18 42 C 18.552 42 19 41.552 19 41 L 19 39 C 19 38.448 18.552 38 18 38 L 16 38 z M 24 38 C 23.448 38 23 38.448 23 39 L 23 41 C 23 41.552 23.448 42 24 42 L 26 42 C 26.552 42 27 41.552 27 41 L 27 39 C 27 38.448 26.552 38 26 38 L 24 38 z M 38 38 C 37.448 38 37 38.448 37 39 L 37 41 C 37 41.552 37.448 42 38 42 L 40 42 C 40.552 42 41 41.552 41 41 L 41 39 C 41 38.448 40.552 38 40 38 L 38 38 z M 46 38 C 45.448 38 45 38.448 45 39 L 45 41 C 45 41.552 45.448 42 46 42 L 48 42 C 48.552 42 49 41.552 49 41 L 49 39 C 49 38.448 48.552 38 48 38 L 46 38 z M 16 45 C 15.448 45 15 45.448 15 46 L 15 48 C 15 48.552 15.448 49 16 49 L 18 49 C 18.552 49 19 48.552 19 48 L 19 46 C 19 45.448 18.552 45 18 45 L 16 45 z M 24 45 C 23.448 45 23 45.448 23 46 L 23 48 C 23 48.552 23.448 49 24 49 L 26 49 C 26.552 49 27 48.552 27 48 L 27 46 C 27 45.448 26.552 45 26 45 L 24 45 z M 38 45 C 37.448 45 37 45.448 37 46 L 37 48 C 37 48.552 37.448 49 38 49 L 40 49 C 40.552 49 41 48.552 41 48 L 41 46 C 41 45.448 40.552 45 40 45 L 38 45 z M 46 45 C 45.448 45 45 45.448 45 46 L 45 48 C 45 48.552 45.448 49 46 49 L 48 49 C 48.552 49 49 48.552 49 48 L 49 46 C 49 45.448 48.552 45 48 45 L 46 45 z"/></svg>