<svg xmlns="http://www.w3.org/2000/svg"  viewBox="0 0 64 64" width="48px" height="48px"><path d="M 34.15625 8 C 32.55325 8 31.047062 8.6248125 29.914062 9.7578125 L 10.050781 29.621094 C 8.7287812 30.944094 8 32.700313 8 34.570312 C 8 36.440313 8.7287812 38.199484 10.050781 39.521484 L 24.480469 53.949219 C 25.801469 55.271219 27.559687 56 29.429688 56 C 31.299688 56 33.056906 55.271219 34.378906 53.949219 L 54.242188 34.085938 C 55.376188 32.952937 56 31.44575 56 29.84375 L 56 20.298828 C 56 18.696828 55.376188 17.189641 54.242188 16.056641 L 47.943359 9.7578125 C 46.810359 8.6248125 45.304172 8 43.701172 8 L 34.15625 8 z M 34.15625 12 L 43.701172 12 C 44.228172 12 44.743234 12.212938 45.115234 12.585938 L 51.414062 18.884766 C 51.786062 19.256766 52 19.772828 52 20.298828 L 52 29.84375 C 52 30.36975 51.785063 30.884813 51.414062 31.257812 L 31.552734 51.121094 C 30.985734 51.687094 30.207687 51.972656 29.429688 51.972656 C 28.651688 51.972656 27.874594 51.688094 27.308594 51.121094 L 12.878906 36.691406 C 12.311906 36.125406 12 35.371313 12 34.570312 C 12 33.769313 12.311906 33.016219 12.878906 32.449219 L 32.742188 12.585938 C 33.120187 12.208937 33.62125 12 34.15625 12 z M 42 19 C 40.343 19 39 20.343 39 22 C 39 23.657 40.343 25 42 25 C 43.657 25 45 23.657 45 22 C 45 20.343 43.657 19 42 19 z"/></svg>