<?xml version="1.0" encoding="UTF-8"?>
<svg id="Layer_2" data-name="Layer 2" xmlns="http://www.w3.org/2000/svg" viewBox="0 0 140.04 53.23">
  <defs>
    <style>
      .cls-1 {
        fill: #285488;
      }

      .cls-2 {
        fill: #335384;
      }

      .cls-3 {
        fill: #44add3;
      }

      .cls-4 {
        isolation: isolate;
      }
    </style>
  </defs>
  <g id="Layer_1-2" data-name="Layer 1">
    <g id="PLAN_FIT" data-name="PLAN FIT">
      <g id="_3d_1" data-name=" 3d 1">
        <path id="Path_20" data-name="Path 20" class="cls-1" d="m50.71,50.75c-1.65,1.61-3.86,2.5-6.16,2.48h-8.32v-3.26h8.26c1.43,0,2.8-.57,3.82-1.57,1.02-.98,1.59-2.33,1.6-3.75v-8.64h3.33v8.7c-.01,2.27-.92,4.44-2.52,6.04Z"/>
        <path id="Path_21" data-name="Path 21" class="cls-1" d="m4.93,4.9c-1.02.98-1.59,2.33-1.6,3.75v8.58H0v-8.64c.01-2.27.92-4.44,2.53-6.04C4.22.96,6.44.08,8.75.06h8.26v3.26h-8.26c-1.43,0-2.8.57-3.82,1.57Z"/>
        <path id="Path_22" data-name="Path 22" class="cls-1" d="m49.84,8.58c0-1.41-.58-2.76-1.6-3.75-1.02-1-2.39-1.57-3.82-1.57h-8.2V0h8.26c2.3,0,4.5.89,6.16,2.48,1.63,1.59,2.54,3.77,2.53,6.04v8.7h-3.33v-8.64Z"/>
        <path id="Path_23" data-name="Path 23" class="cls-1" d="m2.59,50.76C.96,49.17.05,46.99.06,44.71v-8.64h3.33v8.64c0,1.41.58,2.76,1.6,3.75,1.02,1,2.39,1.57,3.82,1.57h8.26v3.2h-8.32c-2.29,0-4.5-.89-6.16-2.47Z"/>
        <path id="Path_24" data-name="Path 24" class="cls-3" d="m27.11,27.63c-.34,0-.68-.08-.99-.24l-13.74-7.29c-.85-.41-1.2-1.44-.79-2.29.03-.06.06-.11.09-.16.58-.86,1.73-1.14,2.64-.64l12.75,6.79,12.67-6.74c.92-.49,2.06-.22,2.64.64.5.81.24,1.88-.57,2.38-.04.03-.09.05-.13.07l-13.63,7.24c-.3.15-.62.23-.96.24Z"/>
        <path id="Path_25" data-name="Path 25" class="cls-3" d="m27.04,43.92c-1.13-.01-2.03-.93-2.04-2.06v-14.91c0-1.13.91-2.04,2.04-2.04s2.04.91,2.04,2.04v14.91c0,1.13-.91,2.04-2.04,2.06Z"/>
        <path id="Path_26" data-name="Path 26" class="cls-3" d="m27.04,43.92c-1.46.02-2.9-.32-4.2-.99l-8.34-4.65c-2.64-1.63-4.3-4.47-4.43-7.58v-8.86c.15-3.1,1.81-5.93,4.43-7.58l8.34-4.65c2.64-1.33,5.76-1.33,8.4,0l8.35,4.65c2.64,1.63,4.3,4.47,4.43,7.58v8.86c-.15,3.1-1.81,5.93-4.43,7.58l-8.35,4.65c-1.3.67-2.74,1.01-4.2.99Zm-2.3-30.86l-8.34,4.65c-1.4.93-2.29,2.45-2.42,4.13v8.86c.12,1.68,1.02,3.2,2.42,4.13l8.35,4.65c1.46.65,3.13.65,4.59,0l8.35-4.65c1.4-.93,2.29-2.45,2.42-4.13v-8.86c-.12-1.68-1.02-3.2-2.42-4.13l-8.35-4.65c-1.46-.65-3.13-.65-4.59,0h0Z"/>
      </g>
      <g id="PLAN_FIT-2" data-name="PLAN FIT-2" class="cls-4">
        <g class="cls-4">
          <path class="cls-2" d="m74.66.83c2.14,0,3.97.74,5.44,2.18,1.47,1.44,2.21,3.23,2.21,5.34s-.74,3.9-2.21,5.34c-1.47,1.44-3.3,2.18-5.44,2.18h-3.94v7.36h-4.42V.83h8.35Zm0,10.91c1.89,0,3.26-1.47,3.26-3.39s-1.38-3.39-3.26-3.39h-3.94v6.78h3.94Z"/>
          <path class="cls-2" d="m89.61,19.01h8.54v4.22h-12.96V.83h4.42v18.17Z"/>
          <path class="cls-2" d="m115.69,23.23l-1.34-4.03h-8.93l-1.34,4.03h-4.77L107.14.83h5.47l7.87,22.4h-4.8Zm-8.86-8.16h6.14l-3.07-9.15-3.07,9.15Z"/>
          <path class="cls-2" d="m135.62.83h4.42v22.4h-3.36l-9.6-13.7v13.7h-4.42V.83h3.36l9.6,13.66V.83Z"/>
        </g>
        <g class="cls-4">
          <path class="cls-2" d="m85.1,49.95l-3.52,2.02-2.05-2.21c-1.73,1.28-3.74,1.92-6.02,1.92s-4.19-.61-5.66-1.79c-1.44-1.22-2.18-2.85-2.18-4.86,0-2.66,1.31-5.02,3.74-6.43-.74-1.15-1.09-2.4-1.09-3.74,0-1.89.67-3.46,1.98-4.64,1.31-1.22,3.01-1.82,5.02-1.82,3.2,0,5.89,1.7,7.14,4.8l-3.78,2.18c-.61-1.79-1.73-2.69-3.3-2.69s-2.66.99-2.66,2.37c0,1.18.54,2.02,1.82,3.39l4.8,5.25c.48-.99.83-2.24,1.09-3.71l3.71,2.11c-.42,1.73-1.06,3.3-1.95,4.7l2.88,3.17Zm-8.32-3.14l-4.83-5.25s-.06-.06-.06-.1c-1.18.74-1.76,1.76-1.76,3.1,0,1.82,1.28,3.04,3.68,3.04,1.12,0,2.11-.26,2.98-.8Z"/>
          <path class="cls-2" d="m101.22,33.06h-8.96v5.31h8.7v4.22h-8.7v8.64h-4.42v-22.4h13.38v4.22Z"/>
          <path class="cls-2" d="m104.46,28.83h4.42v22.4h-4.42v-22.4Z"/>
          <path class="cls-2" d="m127.85,28.83v4.22h-6.05v18.17h-4.42v-18.17h-6.02v-4.22h16.48Z"/>
        </g>
      </g>
    </g>
  </g>
</svg>