<svg width="38" height="31" viewBox="0 0 38 31" fill="none" xmlns="http://www.w3.org/2000/svg">
<g clip-path="url(#clip0_216_483)">
<path d="M31.4913 13.9209V16.2779C33.7984 17.4308 35.1389 18.8577 35.1389 20.2733C35.1389 23.5177 28.6115 26.0664 22.1536 26.6036C21.564 26.6521 21.1256 27.1696 21.1749 27.7585C21.2212 28.3249 21.7096 28.7822 22.3299 28.7379C27.9513 28.2751 37.2805 25.8494 37.2805 20.2733C37.2805 17.2279 34.3007 15.1328 31.4913 13.9209Z" fill="#254C79"/>
<path d="M12.5605 22.9667C11.9657 22.3616 10.9321 22.6573 10.7506 23.4887L10.2773 25.6557C3.1885 23.7477 -0.21496 19.6441 6.52141 16.2779V13.9209C-2.31793 17.7341 -0.930827 24.8963 9.81975 27.7508L9.39423 29.6991C9.21178 30.5344 10.0396 31.241 10.838 30.9217L16.1918 28.7802C16.9 28.497 17.0941 27.5814 16.558 27.0356L12.5605 22.9667Z" fill="#254C79"/>
<path d="M19.4764 0.139201C19.1462 -0.0479596 18.7418 -0.0462457 18.4131 0.143486L9.7334 5.1547C11.2034 6.00339 18.2063 10.0465 19.0051 10.5077L28.28 5.12785L19.4764 0.139201Z" fill="#254C79"/>
<path d="M8.66255 17.0313C8.66255 17.4139 8.86663 17.7673 9.19789 17.9586L17.9355 23.0032V12.3625L8.66248 7.00879L8.66255 17.0313Z" fill="#254C79"/>
<path d="M29.3501 17.0317V6.98267L20.0771 12.3615V23.0036L28.8147 17.959C29.1461 17.7677 29.3501 17.4143 29.3501 17.0317Z" fill="#254C79"/>
</g>
<defs>
<clipPath id="clip0_216_483">
<rect width="36.561" height="30.9999" fill="white" transform="translate(0.719482)"/>
</clipPath>
</defs>
</svg>
