<svg width="50" height="40" viewBox="0 0 50 40" fill="none" xmlns="http://www.w3.org/2000/svg">
<g clip-path="url(#clip0_448_1081)">
<g clip-path="url(#clip1_448_1081)">
<path d="M21.4627 3.57812L27.1054 5.76562L21.2637 8.04688L15.4143 5.75781L21.0569 3.57031C21.1871 3.51563 21.3326 3.51563 21.4627 3.57031V3.57812ZM10.3076 6.80469V15.0469C10.2157 15.0781 10.1238 15.1094 10.0319 15.1406L3.11069 17.8203C1.54116 18.4297 0.507568 19.9609 0.507568 21.6719V30.4297C0.507568 32.0625 1.45694 33.5391 2.91929 34.2031L9.84054 37.3047C10.8741 37.7656 12.0532 37.7656 13.0868 37.3047L21.2637 33.6406L29.4405 37.3047C30.4741 37.7656 31.6532 37.7656 32.6868 37.3047L39.608 34.2031C41.0704 33.5469 42.0198 32.0703 42.0198 30.4297V21.6719C42.0198 19.9609 40.9862 18.4297 39.4166 17.8203L32.4954 15.1406C32.4035 15.1016 32.3116 15.0703 32.2198 15.0469V6.80469C32.2198 5.09375 31.1862 3.5625 29.6166 2.95312L22.6954 0.273438C21.7766 -0.0859375 20.7584 -0.0859375 19.8319 0.273438L12.9107 2.95312C11.3412 3.5625 10.3076 5.09375 10.3076 6.80469ZM28.7591 15.4844L22.8255 17.7812V11.2188L28.7591 8.89844V15.4844ZM11.6627 18.4453L17.3054 20.6328L11.456 22.9219L5.61429 20.6328L11.2569 18.4453C11.3871 18.3906 11.5326 18.3906 11.6627 18.4453ZM13.0179 33.4766V26.0859L18.9515 23.7656V30.8125L13.0179 33.4766ZM30.8569 18.4453C30.9871 18.3906 31.1326 18.3906 31.2627 18.4453L36.9054 20.6328L31.056 22.9219L25.2066 20.6328L30.8493 18.4453H30.8569ZM38.2146 30.9688L32.6255 33.4766V26.0859L38.5591 23.7656V30.4297C38.5591 30.6641 38.4213 30.875 38.2146 30.9688Z" fill="#9A9A9A"/>
</g>
</g>
<defs>
<clipPath id="clip0_448_1081">
<rect width="49" height="40" fill="white" transform="translate(0.5)"/>
</clipPath>
<clipPath id="clip1_448_1081">
<rect width="49" height="40" fill="white" transform="translate(0.5)"/>
</clipPath>
</defs>
</svg>
