<svg width="44" height="40" viewBox="0 0 44 40" fill="none" xmlns="http://www.w3.org/2000/svg">
<g clip-path="url(#clip0_448_1082)">
<path d="M0 9.06934V32.6674C0 34.0385 0.771528 35.3334 2.0625 35.8133C8.70833 38.2889 15.3542 36.5979 22 34.9068C28.0958 33.3606 34.1917 31.8066 40.2799 33.4672C42.0368 33.9471 44 32.7436 44 30.923V7.33262C44 5.96153 43.2285 4.66661 41.9375 4.18672C35.2917 1.71114 28.6458 3.40215 22 5.09317C15.9042 6.63946 9.80833 8.18575 3.72014 6.5252C1.95556 6.04532 0 7.24883 0 9.06934ZM22 27.3125C18.6236 27.3125 15.8889 24.0371 15.8889 20C15.8889 15.9629 18.6236 12.6875 22 12.6875C25.3764 12.6875 28.1111 15.9629 28.1111 20C28.1111 24.0371 25.3764 27.3125 22 27.3125ZM4.88889 27.3125C7.58542 27.3125 9.77778 29.4986 9.77778 32.1875H4.88889V27.3125ZM9.77778 11.4688C9.77778 14.1576 7.58542 16.3438 4.88889 16.3438V11.4688H9.77778ZM39.1111 23.6563V28.5313H34.2222C34.2222 25.8424 36.4146 23.6563 39.1111 23.6563ZM34.2222 7.8125H39.1111V12.6875C36.4146 12.6875 34.2222 10.5014 34.2222 7.8125Z" fill="#9A9A9A"/>
</g>
<defs>
<clipPath id="clip0_448_1082">
<rect width="44" height="39" fill="white" transform="translate(0 0.5)"/>
</clipPath>
</defs>
</svg>
