<svg width="50" height="40" viewBox="0 0 50 40" fill="none" xmlns="http://www.w3.org/2000/svg">
<g clip-path="url(#clip0_448_1083)">
<path d="M25.3302 3.57422L30.9728 5.76172L25.1311 8.04297L19.2817 5.75391L24.9244 3.56641C25.0545 3.51172 25.2 3.51172 25.3302 3.56641V3.57422ZM14.175 6.80078V15.043C14.0831 15.0742 13.9913 15.1055 13.8994 15.1367L6.97813 17.8164C5.40859 18.4258 4.375 19.957 4.375 21.668V30.4258C4.375 32.0586 5.32437 33.5352 6.78672 34.1992L13.708 37.3008C14.7416 37.7617 15.9206 37.7617 16.9542 37.3008L25.1311 33.6367L33.308 37.3008C34.3416 37.7617 35.5206 37.7617 36.5542 37.3008L43.4755 34.1992C44.9378 33.543 45.8872 32.0664 45.8872 30.4258V21.668C45.8872 19.957 44.8536 18.4258 43.2841 17.8164L36.3628 15.1367C36.2709 15.0977 36.1791 15.0664 36.0872 15.043V6.80078C36.0872 5.08984 35.0536 3.55859 33.4841 2.94922L26.5628 0.269531C25.6441 -0.0898438 24.6258 -0.0898438 23.6994 0.269531L16.7781 2.94922C15.2086 3.55859 14.175 5.08984 14.175 6.80078ZM32.6266 15.4805L26.693 17.7773V11.2148L32.6266 8.89453V15.4805ZM15.5302 18.4414L21.1728 20.6289L15.3234 22.918L9.48172 20.6289L15.1244 18.4414C15.2545 18.3867 15.4 18.3867 15.5302 18.4414ZM16.8853 33.4727V26.082L22.8189 23.7617V30.8086L16.8853 33.4727ZM34.7244 18.4414C34.8545 18.3867 35 18.3867 35.1302 18.4414L40.7728 20.6289L34.9234 22.918L29.0741 20.6289L34.7167 18.4414H34.7244ZM42.082 30.9648L36.493 33.4727V26.082L42.4266 23.7617V30.4258C42.4266 30.6602 42.2887 30.8711 42.082 30.9648Z" fill="#9A9A9A"/>
</g>
<defs>
<clipPath id="clip0_448_1083">
<rect width="49" height="40" fill="white" transform="translate(0.5)"/>
</clipPath>
</defs>
</svg>
