<svg width="47" height="34" viewBox="0 0 47 34" fill="none" xmlns="http://www.w3.org/2000/svg">
<g clip-path="url(#clip0_448_1080)">
<g clip-path="url(#clip1_448_1080)">
<path d="M42.3576 4.13513H4.75762C2.16527 4.13513 0.0576172 6.05816 0.0576172 8.42342V25.5766C0.0576172 27.9418 2.16527 29.8649 4.75762 29.8649H13.5995C15.3767 29.8649 17.007 28.9469 17.8001 27.4929L20.1501 23.2046C20.7964 22.032 22.1109 21.2883 23.5503 21.2883C24.9896 21.2883 26.3042 22.032 26.9504 23.2046L29.3004 27.4929C30.0936 28.9469 31.7239 29.8649 33.5011 29.8649H42.3576C44.95 29.8649 47.0576 27.9418 47.0576 25.5766V8.42342C47.0576 6.05816 44.95 4.13513 42.3576 4.13513ZM7.10762 15.9279C7.10762 14.7906 7.60279 13.6999 8.48421 12.8956C9.36564 12.0914 10.5611 11.6396 11.8076 11.6396C13.0541 11.6396 14.2496 12.0914 15.131 12.8956C16.0124 13.6999 16.5076 14.7906 16.5076 15.9279C16.5076 17.0653 16.0124 18.156 15.131 18.9602C14.2496 19.7644 13.0541 20.2162 11.8076 20.2162C10.5611 20.2162 9.36564 19.7644 8.48421 18.9602C7.60279 18.156 7.10762 17.0653 7.10762 15.9279ZM35.3076 11.6396C36.5541 11.6396 37.7496 12.0914 38.631 12.8956C39.5124 13.6999 40.0076 14.7906 40.0076 15.9279C40.0076 17.0653 39.5124 18.156 38.631 18.9602C37.7496 19.7644 36.5541 20.2162 35.3076 20.2162C34.0611 20.2162 32.8656 19.7644 31.9842 18.9602C31.1028 18.156 30.6076 17.0653 30.6076 15.9279C30.6076 14.7906 31.1028 13.6999 31.9842 12.8956C32.8656 12.0914 34.0611 11.6396 35.3076 11.6396Z" fill="#9A9A9A"/>
</g>
</g>
<defs>
<clipPath id="clip0_448_1080">
<rect width="47" height="34" fill="white"/>
</clipPath>
<clipPath id="clip1_448_1080">
<rect width="47" height="34" fill="white"/>
</clipPath>
</defs>
</svg>
